<svg xmlns="http://www.w3.org/2000/svg">
    <clipPath id="my-clip-path" clipPathUnits="objectBoundingBox">
        <g filter="url(#filter0_b_1_43)">
            <path
                d="M0,0.112 C0,0.061,0,0.035,0.009,0.019 C0.009,0.017,0.01,0.016,0.011,0.015 C0.02,0,0.035,0,0.064,0 H0.076 C0.084,0,0.089,0,0.093,0.002 C0.1,0.005,0.106,0.014,0.11,0.025 C0.112,0.031,0.113,0.039,0.115,0.054 C0.118,0.075,0.12,0.086,0.123,0.095 C0.128,0.111,0.137,0.122,0.147,0.128 C0.153,0.13,0.159,0.13,0.172,0.13 H0.934 C0.965,0.13,0.981,0.13,0.99,0.147 C1,0.164,1,0.191,1,0.245 V0.747 C1,0.801,1,0.828,0.99,0.845 C0.981,0.862,0.965,0.862,0.934,0.862 H0.516 C0.504,0.862,0.498,0.862,0.493,0.867 C0.488,0.872,0.485,0.881,0.48,0.899 L0.459,0.963 C0.454,0.981,0.451,0.99,0.446,0.995 C0.441,1,0.435,1,0.423,1 H0.411 C0.397,1,0.389,1,0.384,0.993 C0.378,0.986,0.376,0.974,0.372,0.949 L0.366,0.913 C0.361,0.888,0.359,0.876,0.354,0.869 C0.348,0.862,0.341,0.862,0.326,0.862 H0.141 C0.125,0.862,0.117,0.862,0.111,0.87 C0.105,0.878,0.104,0.892,0.1,0.919 L0.097,0.948 C0.094,0.97,0.093,0.982,0.089,0.989 C0.088,0.991,0.086,0.993,0.085,0.994 C0.08,1,0.073,1,0.06,1 C0.035,1,0.022,1,0.013,0.988 C0.011,0.985,0.009,0.981,0.007,0.977 C0,0.962,0,0.939,0,0.895 V0.112"
                fill="#171B22" fill-opacity="0.4" />
            <path
                d="M0.001,0.112 C0.001,0.087,0.001,0.067,0.002,0.053 C0.003,0.038,0.005,0.028,0.009,0.02 C0.01,0.018,0.01,0.017,0.011,0.016 C0.016,0.009,0.022,0.005,0.03,0.003 C0.038,0.001,0.049,0.001,0.064,0.001 H0.076 C0.085,0.001,0.089,0.001,0.093,0.003 C0.1,0.007,0.106,0.015,0.109,0.026 C0.111,0.032,0.112,0.039,0.115,0.054 L0.115,0.054 C0.118,0.076,0.119,0.087,0.122,0.095 C0.128,0.112,0.137,0.124,0.147,0.129 C0.153,0.132,0.159,0.132,0.172,0.132 H0.172 H0.936 C0.951,0.132,0.963,0.132,0.972,0.134 C0.98,0.136,0.987,0.14,0.991,0.148 C0.996,0.157,0.998,0.167,0.999,0.183 C1,0.198,1,0.219,1,0.246 V0.748 C1,0.776,1,0.796,0.999,0.812 C0.998,0.827,0.996,0.838,0.991,0.846 C0.987,0.854,0.98,0.859,0.972,0.861 C0.963,0.863,0.951,0.863,0.936,0.863 H0.516 H0.516 C0.51,0.863,0.506,0.863,0.502,0.863 C0.499,0.864,0.496,0.865,0.493,0.868 C0.491,0.871,0.489,0.874,0.487,0.879 C0.485,0.885,0.483,0.891,0.48,0.9 L0.48,0.901 L0.459,0.965 C0.457,0.974,0.454,0.981,0.452,0.986 C0.45,0.991,0.448,0.994,0.446,0.996 C0.444,0.999,0.441,1,0.438,1 C0.434,1,0.43,1,0.424,1 H0.412 C0.404,1,0.399,1,0.395,1 C0.39,0.999,0.387,0.998,0.385,0.994 C0.382,0.991,0.38,0.986,0.379,0.979 C0.377,0.972,0.375,0.963,0.373,0.951 L0.367,0.915 L0.367,0.915 C0.365,0.903,0.363,0.893,0.361,0.886 C0.36,0.879,0.358,0.874,0.355,0.87 C0.352,0.866,0.349,0.865,0.344,0.864 C0.34,0.863,0.334,0.863,0.327,0.863 H0.327 H0.141 H0.141 C0.133,0.863,0.127,0.863,0.122,0.864 C0.117,0.865,0.114,0.867,0.111,0.871 C0.108,0.875,0.106,0.881,0.104,0.889 C0.103,0.897,0.101,0.907,0.1,0.921 L0.1,0.921 L0.096,0.95 C0.095,0.961,0.094,0.969,0.093,0.976 C0.092,0.983,0.09,0.987,0.088,0.991 C0.087,0.993,0.086,0.994,0.085,0.996 C0.082,0.998,0.08,1,0.076,1 C0.072,1,0.067,1,0.06,1 C0.047,1,0.038,1,0.03,1 C0.023,0.998,0.018,0.995,0.013,0.99 C0.011,0.987,0.009,0.983,0.007,0.979 C0.004,0.971,0.002,0.962,0.002,0.949 C0.001,0.936,0.001,0.919,0.001,0.897 V0.112"
                stroke="url(#paint0_linear_1_43)" stroke-opacity="0.3" stroke-width="2" />
        </g>
        <!-- <defs>
            <filter id="filter0_b_1_43" x="-270" y="-270" width="2000" height="1373" filterUnits="userSpaceOnUse"
                color-interpolation-filters="sRGB">
                <feFlood flood-opacity="0" result="BackgroundImageFix" />
                <feGaussianBlur in="BackgroundImageFix" stdDeviation="135" />
                <feComposite in2="SourceAlpha" operator="in" result="effect1_backgroundBlur_1_43" />
                <feBlend mode="normal" in="SourceGraphic" in2="effect1_backgroundBlur_1_43" result="shape" />
            </filter>
            <linearGradient id="paint0_linear_1_43" x1="155" y1="50.5" x2="292" y2="912.5"
                gradientUnits="userSpaceOnUse">
                <stop stop-color="white" />
                <stop offset="1" stop-color="white" stop-opacity="0" />
            </linearGradient>
        </defs> -->
    </clipPath>
</svg>