<svg xmlns="http://www.w3.org/2000/svg" xmlns:xlink="http://www.w3.org/1999/xlink" width="400" zoomAndPan="magnify"
    viewBox="0 0 375 260" height="380" preserveAspectRatio="xMidYMid meet" version="1.0">
    <g fill="#ffffff" fill-opacity="1">
        <g transform="translate(89.782709, 234.475828)">
            <g>
                <path
                    d="M 36.355469 -20.351562 C 47.023438 -22.128906 53.542969 -28.648438 62.039062 -34.578125 C 69.351562 -39.515625 88.910156 -53.542969 89.898438 -54.335938 C 92.863281 -56.507812 94.839844 -61.054688 91.875 -62.832031 C 91.085938 -63.226562 88.910156 -61.644531 87.332031 -60.855469 C 74.882812 -54.335938 64.214844 -44.0625 51.570312 -37.738281 C 50.382812 -37.144531 47.023438 -36.15625 48.210938 -38.921875 C 49 -40.703125 49.988281 -42.480469 50.777344 -44.257812 L 54.929688 -51.570312 L 59.273438 -59.472656 C 60.261719 -61.644531 60.855469 -63.820312 61.84375 -65.398438 C 63.226562 -67.96875 65.003906 -70.339844 66.585938 -72.710938 C 67.179688 -73.5 67.769531 -74.289062 67.96875 -75.277344 C 68.164062 -75.675781 68.164062 -75.871094 68.164062 -76.070312 C 67.96875 -76.859375 66.980469 -77.058594 66.386719 -77.253906 C 63.621094 -77.648438 59.667969 -78.835938 56.902344 -78.042969 C 54.53125 -77.253906 51.570312 -75.675781 49.394531 -74.289062 C 41.097656 -69.152344 32.796875 -64.214844 25.289062 -57.890625 C 23.117188 -56.113281 20.746094 -54.53125 18.375 -52.953125 C 18.175781 -52.753906 17.585938 -52.753906 17.191406 -52.753906 C 17.191406 -54.53125 16.203125 -54.53125 17.980469 -57.101562 C 22.128906 -63.027344 25.882812 -69.152344 30.230469 -74.882812 C 32.601562 -78.242188 33.589844 -81.800781 30.824219 -83.773438 C 28.054688 -85.554688 26.671875 -85.554688 24.699219 -83.578125 C 20.945312 -77.253906 17.386719 -70.734375 12.84375 -65.003906 C 8.496094 -59.273438 3.953125 -53.742188 0.789062 -47.417969 C -1.183594 -43.664062 -3.753906 -40.109375 -5.53125 -36.15625 C -6.914062 -32.796875 -7.707031 -28.648438 -5.925781 -25.6875 C -5.335938 -24.699219 -1.582031 -22.722656 1.382812 -24.894531 C 4.941406 -27.660156 6.519531 -33.589844 9.285156 -37.34375 C 12.050781 -40.898438 16.003906 -43.269531 19.363281 -45.839844 C 27.859375 -52.359375 38.332031 -59.078125 47.222656 -64.808594 C 49.59375 -65.597656 51.371094 -64.410156 50.382812 -62.832031 C 41.886719 -48.210938 45.445312 -52.558594 33.589844 -30.425781 C 32.402344 -28.253906 33.195312 -20.945312 36.355469 -20.351562 Z M 36.355469 -20.351562 " />
            </g>
        </g>
    </g>
    <g fill="#ffffff" fill-opacity="1">
        <g transform="translate(167.234679, 234.475828)">
            <g>
                <path
                    d="M -3.753906 -14.226562 C -2.371094 -13.4375 -0.988281 -14.226562 0.789062 -16.992188 L 1.777344 -18.574219 C 5.136719 -24.699219 9.878906 -30.03125 14.226562 -35.167969 C 18.175781 -39.910156 18.769531 -39.714844 21.339844 -33.984375 C 23.90625 -28.648438 27.265625 -23.90625 31.8125 -20.152344 C 32.402344 -19.5625 33.589844 -19.164062 34.183594 -19.363281 C 37.144531 -20.152344 38.527344 -23.90625 36.355469 -25.882812 C 31.414062 -30.425781 30.03125 -36.75 26.871094 -42.085938 C 24.894531 -45.246094 25.289062 -46.433594 28.054688 -49 C 31.8125 -52.160156 35.566406 -55.519531 39.714844 -58.484375 C 46.828125 -63.421875 54.53125 -68.164062 62.832031 -71.328125 C 65.203125 -72.316406 65.992188 -73.304688 65.792969 -74.882812 C 65.203125 -77.253906 63.820312 -78.636719 61.84375 -78.636719 C 60.460938 -78.636719 59.273438 -78.242188 57.890625 -77.847656 C 50.382812 -75.675781 43.863281 -71.523438 37.144531 -67.375 C 32.207031 -64.214844 27.859375 -60.460938 23.117188 -56.902344 C 21.339844 -55.71875 20.546875 -55.914062 19.5625 -57.890625 C 17.585938 -62.238281 15.609375 -66.78125 14.027344 -71.328125 C 13.632812 -72.710938 13.039062 -76.464844 11.855469 -77.253906 C 10.867188 -78.042969 8.296875 -77.253906 7.113281 -77.058594 C 6.125 -77.058594 4.941406 -76.660156 4.347656 -75.675781 C 3.554688 -74.488281 3.953125 -72.710938 4.542969 -71.328125 L 9.679688 -58.683594 C 10.867188 -55.914062 14.621094 -50.582031 13.039062 -47.617188 C 11.65625 -44.652344 9.285156 -42.480469 7.113281 -39.910156 C 6.71875 -39.320312 6.125 -38.921875 5.730469 -38.527344 C 2.371094 -34.378906 -1.183594 -30.230469 -4.542969 -25.882812 C -5.53125 -24.5 -6.324219 -22.917969 -6.914062 -21.339844 C -7.902344 -18.96875 -6.324219 -15.804688 -3.753906 -14.226562 Z M -3.753906 -14.226562 " />
            </g>
        </g>
    </g>
    <g fill="#ffffff" fill-opacity="1">
        <g transform="translate(220.779268, 234.475828)">
            <g>
                <path
                    d="M 30.03125 -12.050781 C 30.625 -12.449219 30.824219 -13.039062 31.019531 -13.4375 C 34.183594 -20.746094 36.355469 -28.453125 39.320312 -35.960938 C 41.691406 -42.085938 44.851562 -47.417969 48.605469 -52.753906 C 51.964844 -57.496094 53.941406 -63.226562 56.3125 -68.363281 C 56.902344 -69.351562 57.101562 -70.339844 57.496094 -71.328125 C 58.089844 -73.894531 57.496094 -74.488281 55.519531 -76.265625 C 52.160156 -79.03125 47.222656 -80.414062 43.664062 -77.648438 C 34.378906 -70.140625 25.6875 -62.238281 17.585938 -53.742188 C 16.398438 -52.753906 11.460938 -43.664062 9.484375 -45.046875 C 7.308594 -46.628906 14.226562 -55.914062 15.214844 -57.496094 C 17.78125 -61.644531 19.757812 -66.386719 22.128906 -70.734375 C 23.117188 -72.511719 24.5 -74.289062 25.6875 -76.070312 C 26.871094 -78.042969 28.054688 -80.21875 29.441406 -82.195312 L 45.445312 -107.484375 C 47.816406 -111.042969 50.1875 -114.597656 52.359375 -118.351562 C 54.335938 -121.710938 56.3125 -124.871094 58.484375 -127.835938 C 60.460938 -130.601562 63.621094 -132.378906 65.597656 -135.144531 C 66.585938 -136.726562 66.980469 -138.503906 66.386719 -140.085938 C 65.792969 -141.667969 64.609375 -142.652344 63.226562 -143.640625 C 62.632812 -144.234375 61.84375 -144.828125 61.054688 -144.828125 C 58.089844 -145.222656 52.953125 -136.332031 51.570312 -134.355469 C 48.605469 -130.007812 46.035156 -125.464844 43.269531 -121.117188 C 38.527344 -113.410156 34.972656 -109.65625 28.648438 -98.199219 C 21.929688 -86.9375 18.175781 -80.21875 12.25 -71.722656 C 8.890625 -66.386719 6.324219 -60.65625 3.359375 -55.125 C -1.777344 -46.035156 -1.976562 -35.960938 -2.171875 -25.6875 C -2.371094 -24.699219 -2.371094 -23.511719 -1.777344 -22.523438 C -0.789062 -20.546875 1.976562 -20.152344 3.953125 -21.140625 C 5.925781 -22.128906 7.308594 -24.105469 8.496094 -25.882812 C 17.585938 -38.726562 26.671875 -51.964844 39.320312 -61.449219 C 39.714844 -61.84375 40.703125 -61.84375 41.492188 -61.84375 C 41.492188 -61.25 41.691406 -60.65625 41.492188 -60.066406 C 37.9375 -53.148438 33.589844 -45.640625 30.625 -37.9375 C 27.660156 -30.625 25.6875 -22.917969 26.671875 -15.410156 C 26.871094 -14.421875 27.070312 -13.4375 27.660156 -12.644531 C 28.054688 -12.050781 29.242188 -11.65625 30.03125 -12.050781 Z M 30.03125 -12.050781 " />
            </g>
        </g>
    </g>
    <g fill="#ffffff" fill-opacity="1">
        <g transform="translate(277.485191, 234.475828)">
            <g>
                <path
                    d="M 9.679688 -23.117188 C 12.050781 -25.09375 13.238281 -27.070312 12.644531 -30.425781 C 10.667969 -36.15625 0.59375 -39.714844 0 -31.613281 C 0 -29.441406 0.59375 -27.070312 2.171875 -25.6875 C 5.136719 -22.722656 7.507812 -21.339844 9.679688 -23.117188 Z M 9.679688 -23.117188 " />
            </g>
        </g>
    </g>
    <g fill="#ffffff" fill-opacity="1">
        <g transform="translate(74.090524, 257.267092)">
            <g>
                <path
                    d="M 5.996094 0 C 9.753906 0 12.261719 -2.367188 12.261719 -5.925781 C 12.261719 -9.46875 9.746094 -11.832031 5.96875 -11.832031 L 1.410156 -11.832031 L 1.410156 0 Z M 3.542969 -9.910156 L 5.90625 -9.910156 C 8.5625 -9.910156 10.074219 -8.308594 10.074219 -5.890625 C 10.074219 -3.453125 8.519531 -1.933594 5.925781 -1.933594 L 3.542969 -1.933594 Z M 3.542969 -9.910156 " />
            </g>
        </g>
    </g>
    <g fill="#ffffff" fill-opacity="1">
        <g transform="translate(101.191557, 257.267092)">
            <g>
                <path
                    d="M 9.597656 0 L 9.597656 -1.941406 L 3.574219 -1.941406 L 3.574219 -5.097656 L 8.710938 -5.097656 L 8.710938 -6.925781 L 3.574219 -6.925781 L 3.574219 -9.894531 L 9.519531 -9.894531 L 9.519531 -11.832031 L 1.410156 -11.832031 L 1.410156 0 Z M 9.597656 0 " />
            </g>
        </g>
    </g>
    <g fill="#ffffff" fill-opacity="1">
        <g transform="translate(125.613699, 257.267092)">
            <g>
                <path
                    d="M 7.066406 0 L 12.035156 -11.84375 L 9.738281 -11.84375 L 6.097656 -2.84375 L 6.066406 -2.828125 L 2.417969 -11.84375 L 0.128906 -11.84375 L 5.089844 0 Z M 7.066406 0 " />
            </g>
        </g>
    </g>
    <g fill="#ffffff" fill-opacity="1">
        <g transform="translate(152.043769, 257.267092)">
            <g />
        </g>
    </g>
    <g fill="#ffffff" fill-opacity="1">
        <g transform="translate(170.647154, 257.267092)">
            <g />
        </g>
    </g>
    <g fill="#ffffff" fill-opacity="1">
        <g transform="translate(189.250539, 257.267092)">
            <g />
        </g>
    </g>
    <g fill="#ffffff" fill-opacity="1">
        <g transform="translate(207.862321, 257.267092)">
            <g>
                <path
                    d="M 3.574219 0 L 3.574219 -4.996094 L 9.546875 -4.996094 L 9.546875 0 L 11.71875 0 L 11.71875 -11.832031 L 9.546875 -11.832031 L 9.546875 -6.925781 L 3.574219 -6.925781 L 3.574219 -11.832031 L 1.410156 -11.832031 L 1.410156 0 Z M 3.574219 0 " />
            </g>
        </g>
    </g>
    <g fill="#ffffff" fill-opacity="1">
        <g transform="translate(235.250377, 257.267092)">
            <g>
                <path
                    d="M 11.980469 0 L 7.054688 -11.84375 L 5.003906 -11.84375 L 0.078125 0 L 2.367188 0 L 3.304688 -2.289062 L 8.753906 -2.289062 L 9.691406 0 Z M 5.953125 -8.761719 L 6.019531 -9.050781 L 6.046875 -9.050781 L 6.097656 -8.761719 L 8.015625 -4.097656 L 4.046875 -4.097656 Z M 5.953125 -8.761719 " />
            </g>
        </g>
    </g>
    <g fill="#ffffff" fill-opacity="1">
        <g transform="translate(261.577315, 257.267092)">
            <g>
                <path
                    d="M 3.574219 0 L 3.574219 -8.273438 L 10.023438 0 L 11.878906 0 L 11.878906 -11.832031 L 9.71875 -11.832031 L 9.71875 -3.550781 L 3.273438 -11.832031 L 1.410156 -11.832031 L 1.410156 0 Z M 3.574219 0 " />
            </g>
        </g>
    </g>
    <g fill="#ffffff" fill-opacity="1">
        <g transform="translate(289.121929, 257.267092)">
            <g>
                <path
                    d="M 11.042969 -11.832031 L 8.507812 -11.832031 L 3.574219 -5.605469 L 3.574219 -11.832031 L 1.410156 -11.832031 L 1.410156 0 L 3.574219 0 L 3.574219 -2.730469 L 5.402344 -5.019531 L 9.074219 0 L 11.640625 0 L 6.820312 -6.59375 Z M 11.042969 -11.832031 " />
            </g>
        </g>
    </g>
</svg>