<svg xmlns="http://www.w3.org/2000/svg" xmlns:xlink="http://www.w3.org/1999/xlink" width="500" zoomAndPan="magnify" viewBox="0 0 375 374.999991" height="500" preserveAspectRatio="xMidYMid meet" version="1.0"><defs><g/><clipPath id="460681c184"><path d="M 287.066406 188.25 L 291.136719 188.25 L 291.136719 192.320312 L 287.066406 192.320312 Z M 287.066406 188.25 " clip-rule="nonzero"/></clipPath><clipPath id="4ad5bf3b8b"><path d="M 289.101562 188.25 C 287.976562 188.25 287.066406 189.160156 287.066406 190.285156 C 287.066406 191.40625 287.976562 192.320312 289.101562 192.320312 C 290.226562 192.320312 291.136719 191.40625 291.136719 190.285156 C 291.136719 189.160156 290.226562 188.25 289.101562 188.25 Z M 289.101562 188.25 " clip-rule="nonzero"/></clipPath></defs><g fill="#000000" fill-opacity="1"><g transform="translate(117.174672, 225.988118)"><g><path d="M 12.328125 -10.890625 C 12.554688 -10.691406 12.394531 -10.234375 11.84375 -9.515625 C 11.300781 -8.804688 10.695312 -8.179688 10.03125 -7.640625 C 9.375 -7.109375 8.597656 -6.550781 7.703125 -5.96875 C 7.117188 -5.582031 6.460938 -5.378906 5.734375 -5.359375 C 5.003906 -5.335938 4.570312 -5.710938 4.4375 -6.484375 C 4.3125 -7.265625 4.363281 -8.0625 4.59375 -8.875 C 4.820312 -9.726562 4.832031 -10.144531 4.625 -10.125 C 4.425781 -10.113281 4.039062 -9.859375 3.46875 -9.359375 C 1.988281 -8.003906 0.65625 -6.515625 -0.53125 -4.890625 C -0.84375 -4.367188 -1.289062 -4.03125 -1.875 -3.875 C -2.175781 -3.832031 -2.425781 -3.890625 -2.625 -4.046875 C -2.820312 -4.210938 -2.875 -4.414062 -2.78125 -4.65625 C -2.070312 -6.695312 -1.347656 -8.726562 -0.609375 -10.75 C -0.429688 -11.164062 -0.117188 -11.457031 0.328125 -11.625 C 0.515625 -11.6875 0.703125 -11.65625 0.890625 -11.53125 C 1.085938 -11.40625 1.203125 -11.242188 1.234375 -11.046875 C 1.242188 -10.847656 1.207031 -10.613281 1.125 -10.34375 C 1.082031 -10.1875 1.046875 -10.035156 1.015625 -9.890625 C 0.992188 -9.742188 1 -9.625 1.03125 -9.53125 C 1.0625 -9.4375 1.140625 -9.414062 1.265625 -9.46875 C 1.421875 -9.59375 1.570312 -9.722656 1.71875 -9.859375 C 2.125 -10.191406 2.507812 -10.507812 2.875 -10.8125 C 3.195312 -11.0625 3.539062 -11.300781 3.90625 -11.53125 C 4.28125 -11.757812 4.675781 -11.9375 5.09375 -12.0625 C 5.78125 -12.21875 6.296875 -12.140625 6.640625 -11.828125 C 6.992188 -11.523438 7.113281 -11.035156 7 -10.359375 C 6.851562 -9.742188 6.703125 -9.128906 6.546875 -8.515625 C 6.316406 -7.941406 6.328125 -7.53125 6.578125 -7.28125 C 6.828125 -7.039062 7.738281 -7.519531 9.3125 -8.71875 L 10.5 -9.671875 C 11.601562 -10.660156 12.210938 -11.066406 12.328125 -10.890625 Z M 12.328125 -10.890625 "/></g></g><g transform="translate(129.892768, 223.922397)"><g><path d="M 1.484375 -5.609375 C 1.328125 -5.703125 1.164062 -5.785156 1 -5.859375 C 0.914062 -5.910156 0.847656 -5.953125 0.796875 -5.984375 C 0.410156 -5.773438 0.101562 -5.492188 -0.125 -5.140625 C -0.238281 -4.929688 -0.390625 -4.75 -0.578125 -4.59375 C -0.847656 -4.300781 -1.160156 -4.144531 -1.515625 -4.125 C -1.734375 -4.113281 -1.921875 -4.1875 -2.078125 -4.34375 C -2.109375 -4.363281 -2.128906 -4.421875 -2.140625 -4.515625 C -2.160156 -4.609375 -2.160156 -4.679688 -2.140625 -4.734375 C -2.085938 -4.796875 -2.046875 -4.859375 -2.015625 -4.921875 C -1.765625 -5.359375 -1.492188 -5.78125 -1.203125 -6.1875 C -0.867188 -6.601562 -0.679688 -7.007812 -0.640625 -7.40625 C -0.609375 -7.800781 -0.757812 -8.234375 -1.09375 -8.703125 C -1.519531 -9.378906 -1.890625 -10.117188 -2.203125 -10.921875 C -2.296875 -11.140625 -2.390625 -11.367188 -2.484375 -11.609375 C -2.628906 -11.941406 -2.570312 -12.257812 -2.3125 -12.5625 C -2.101562 -12.769531 -1.863281 -12.859375 -1.59375 -12.828125 C -1.320312 -12.804688 -1.109375 -12.695312 -0.953125 -12.5 C -0.734375 -12.050781 -0.507812 -11.617188 -0.28125 -11.203125 C -0.0625 -10.796875 0.140625 -10.394531 0.328125 -10 C 0.617188 -9.519531 0.960938 -9.519531 1.359375 -10 C 1.742188 -10.5 2.140625 -11.019531 2.546875 -11.5625 C 2.984375 -12.132812 3.414062 -12.707031 3.84375 -13.28125 C 4.195312 -13.71875 4.578125 -14.125 4.984375 -14.5 C 5.234375 -14.738281 5.5 -14.773438 5.78125 -14.609375 C 5.9375 -14.472656 6.007812 -14.34375 6 -14.21875 C 5.988281 -14.101562 5.941406 -13.984375 5.859375 -13.859375 C 4.972656 -12.515625 4.101562 -11.1875 3.25 -9.875 C 3.03125 -9.582031 2.820312 -9.285156 2.625 -8.984375 C 2.195312 -8.515625 1.976562 -8.117188 1.96875 -7.796875 C 1.96875 -7.472656 2.332031 -7.0625 3.0625 -6.5625 C 3.4375 -6.300781 3.957031 -6.351562 4.625 -6.71875 C 5.300781 -7.082031 6.003906 -7.578125 6.734375 -8.203125 C 7.472656 -8.828125 8.140625 -9.421875 8.734375 -9.984375 C 9.140625 -10.398438 9.472656 -10.695312 9.734375 -10.875 C 10.347656 -11.351562 10.734375 -11.460938 10.890625 -11.203125 C 11.054688 -10.941406 10.925781 -10.566406 10.5 -10.078125 C 10.28125 -9.859375 10.070312 -9.640625 9.875 -9.421875 C 8.945312 -8.515625 8.023438 -7.609375 7.109375 -6.703125 C 6.628906 -6.265625 6.101562 -5.878906 5.53125 -5.546875 C 4.851562 -5.160156 4.175781 -4.953125 3.5 -4.921875 C 2.820312 -4.898438 2.148438 -5.128906 1.484375 -5.609375 Z M 1.484375 -5.609375 "/></g></g><g transform="translate(140.893141, 222.135676)"><g><path d="M 2.640625 -4.65625 C 3.585938 -4.8125 3.992188 -4.410156 3.859375 -3.453125 C 3.804688 -3.066406 3.722656 -2.707031 3.609375 -2.375 C 3.492188 -2.070312 3.304688 -1.851562 3.046875 -1.71875 C 2.785156 -1.582031 2.488281 -1.554688 2.15625 -1.640625 C 1.875 -1.703125 1.703125 -1.851562 1.640625 -2.09375 C 1.554688 -2.5 1.5 -2.921875 1.46875 -3.359375 C 1.4375 -4.128906 1.828125 -4.5625 2.640625 -4.65625 Z M 2.640625 -4.65625 "/></g></g><g transform="translate(147.538476, 221.056315)"><g/></g><g transform="translate(160.655639, 218.925777)"><g><path d="M 87.265625 -13.5 C 87.304688 -13.488281 87.359375 -13.453125 87.421875 -13.390625 C 87.492188 -13.335938 87.535156 -13.269531 87.546875 -13.1875 C 87.578125 -13.050781 87.554688 -12.941406 87.484375 -12.859375 C 87.421875 -12.773438 87.335938 -12.722656 87.234375 -12.703125 L 86.859375 -12.6875 C 86.828125 -12.65625 86.800781 -12.640625 86.78125 -12.640625 C 80.289062 -11.953125 73.921875 -11.140625 67.671875 -10.203125 C 61.429688 -9.265625 55.144531 -8.269531 48.8125 -7.21875 C 47.769531 -7.050781 46.742188 -6.882812 45.734375 -6.71875 C 45.097656 -6.613281 44.601562 -6.40625 44.25 -6.09375 C 43.894531 -5.789062 43.625 -5.3125 43.4375 -4.65625 C 42.414062 -0.675781 41.351562 3.296875 40.25 7.265625 C 39.644531 9.429688 39.046875 11.59375 38.453125 13.75 C 38.035156 15.320312 37.632812 16.914062 37.25 18.53125 C 37.039062 19.320312 36.847656 20.113281 36.671875 20.90625 C 36.648438 20.976562 36.617188 21.054688 36.578125 21.140625 C 36.554688 21.359375 36.5 21.5625 36.40625 21.75 C 36.226562 21.957031 35.972656 22.101562 35.640625 22.1875 C 35.316406 22.28125 35.019531 22.265625 34.75 22.140625 C 34.488281 22.015625 34.378906 21.757812 34.421875 21.375 C 34.546875 20.695312 34.703125 20.039062 34.890625 19.40625 C 36.421875 13.4375 37.972656 7.457031 39.546875 1.46875 C 39.910156 0.0703125 40.28125 -1.332031 40.65625 -2.75 C 40.695312 -2.957031 40.742188 -3.191406 40.796875 -3.453125 C 40.941406 -3.941406 41.082031 -4.421875 41.21875 -4.890625 C 41.320312 -5.453125 41.144531 -5.722656 40.6875 -5.703125 C 37.457031 -5.097656 34.265625 -4.425781 31.109375 -3.6875 C 29.429688 -3.320312 27.742188 -2.960938 26.046875 -2.609375 C 25.109375 -2.421875 24.515625 -1.851562 24.265625 -0.90625 C 23.171875 2.976562 22.007812 6.847656 20.78125 10.703125 C 20.0625 12.992188 19.320312 15.285156 18.5625 17.578125 C 18.28125 18.398438 18 19.222656 17.71875 20.046875 C 17.5625 20.578125 17.382812 21.078125 17.1875 21.546875 C 16.957031 21.984375 16.613281 22.28125 16.15625 22.4375 C 15.695312 22.601562 15.28125 22.644531 14.90625 22.5625 C 14.53125 22.488281 14.328125 22.296875 14.296875 21.984375 C 14.335938 21.367188 14.429688 20.785156 14.578125 20.234375 C 15.640625 15.234375 16.882812 10.296875 18.3125 5.421875 C 18.820312 3.691406 19.328125 1.960938 19.828125 0.234375 C 19.953125 -0.304688 19.765625 -0.570312 19.265625 -0.5625 C 18.773438 -0.550781 18.070312 -0.410156 17.15625 -0.140625 C 17.125 -0.128906 17.082031 -0.125 17.03125 -0.125 C 15.414062 0.289062 13.773438 0.789062 12.109375 1.375 C 10.441406 1.957031 9.351562 2.367188 8.84375 2.609375 C 8.332031 2.828125 7.796875 2.984375 7.234375 3.078125 C 7.210938 3.097656 7.179688 3.113281 7.140625 3.125 C 7.085938 3.132812 7.03125 3.132812 6.96875 3.125 L 6.671875 3.203125 C 6.566406 3.210938 6.457031 3.1875 6.34375 3.125 C 6.226562 3.0625 6.160156 2.96875 6.140625 2.84375 C 6.148438 2.769531 6.179688 2.675781 6.234375 2.5625 C 6.285156 2.445312 6.34375 2.363281 6.40625 2.3125 C 8.332031 1.257812 10.328125 0.425781 12.390625 -0.1875 C 14.753906 -0.945312 17.128906 -1.648438 19.515625 -2.296875 C 20.304688 -2.453125 20.8125 -2.914062 21.03125 -3.6875 C 21.507812 -5.25 22.007812 -6.8125 22.53125 -8.375 C 23.164062 -10.238281 23.820312 -12.097656 24.5 -13.953125 C 24.71875 -14.640625 24.941406 -15.328125 25.171875 -16.015625 C 25.210938 -16.078125 25.242188 -16.148438 25.265625 -16.234375 C 25.328125 -16.453125 25.40625 -16.660156 25.5 -16.859375 C 26.019531 -17.703125 26.425781 -18.59375 26.71875 -19.53125 C 27.019531 -20.46875 27.269531 -21.421875 27.46875 -22.390625 C 27.570312 -22.804688 27.679688 -23.210938 27.796875 -23.609375 C 29.734375 -31.054688 31.632812 -38.515625 33.5 -45.984375 C 34.394531 -49.265625 34.945312 -52.582031 35.15625 -55.9375 C 35.257812 -57.144531 35.144531 -58.320312 34.8125 -59.46875 C 34.550781 -60.125 34.046875 -60.40625 33.296875 -60.3125 C 32.554688 -60.226562 31.691406 -59.894531 30.703125 -59.3125 C 29.710938 -58.726562 28.695312 -58.050781 27.65625 -57.28125 C 26.625 -56.519531 25.695312 -55.78125 24.875 -55.0625 C 24.0625 -54.351562 23.453125 -53.820312 23.046875 -53.46875 C 22.921875 -53.375 22.84375 -53.3125 22.8125 -53.28125 C 12.082031 -43.925781 2.84375 -33.269531 -4.90625 -21.3125 C -5.757812 -20 -6.5625 -18.65625 -7.3125 -17.28125 C -8.070312 -15.90625 -8.742188 -14.476562 -9.328125 -13 C -9.753906 -11.882812 -10.0625 -10.742188 -10.25 -9.578125 C -10.40625 -7.785156 -10.066406 -6.492188 -9.234375 -5.703125 C -8.398438 -4.921875 -7.269531 -4.488281 -5.84375 -4.40625 C -4.414062 -4.320312 -2.898438 -4.457031 -1.296875 -4.8125 C 0.296875 -5.164062 1.785156 -5.570312 3.171875 -6.03125 C 4.566406 -6.5 5.640625 -6.921875 6.390625 -7.296875 C 7.285156 -7.671875 8.191406 -8.039062 9.109375 -8.40625 C 9.890625 -8.6875 10.117188 -8.671875 9.796875 -8.359375 C 9.484375 -8.054688 8.765625 -7.582031 7.640625 -6.9375 C 6.523438 -6.289062 5.164062 -5.617188 3.5625 -4.921875 C 1.96875 -4.234375 0.296875 -3.65625 -1.453125 -3.1875 C -3.210938 -2.71875 -4.894531 -2.484375 -6.5 -2.484375 C -8.101562 -2.492188 -9.46875 -2.867188 -10.59375 -3.609375 C -11.726562 -4.359375 -12.453125 -5.625 -12.765625 -7.40625 C -12.773438 -7.445312 -12.78125 -7.492188 -12.78125 -7.546875 C -12.914062 -8.679688 -12.820312 -9.789062 -12.5 -10.875 C -12.007812 -12.851562 -11.269531 -14.726562 -10.28125 -16.5 C -9.238281 -18.40625 -8.140625 -20.269531 -6.984375 -22.09375 C 0.535156 -33.625 9.441406 -43.972656 19.734375 -53.140625 C 20.953125 -54.222656 22.375 -55.425781 24 -56.75 C 25.632812 -58.070312 27.34375 -59.238281 29.125 -60.25 C 30.90625 -61.257812 32.625 -61.863281 34.28125 -62.0625 C 36.125 -62.25 37.28125 -61.453125 37.75 -59.671875 C 37.9375 -59.023438 38.035156 -58.375 38.046875 -57.71875 C 38.066406 -57.070312 38.050781 -56.410156 38 -55.734375 C 37.988281 -55.648438 37.984375 -55.554688 37.984375 -55.453125 C 37.890625 -53.867188 37.691406 -52.304688 37.390625 -50.765625 C 37.097656 -49.222656 36.757812 -47.691406 36.375 -46.171875 C 33.1875 -32.929688 29.722656 -19.765625 25.984375 -6.671875 C 25.867188 -6.273438 25.769531 -5.878906 25.6875 -5.484375 C 25.53125 -4.859375 25.617188 -4.457031 25.953125 -4.28125 C 26.296875 -4.101562 26.828125 -4.070312 27.546875 -4.1875 C 28.273438 -4.300781 29.125 -4.472656 30.09375 -4.703125 C 30.238281 -4.734375 30.378906 -4.773438 30.515625 -4.828125 C 31.160156 -4.953125 31.804688 -5.09375 32.453125 -5.25 C 35.335938 -5.957031 38.210938 -6.585938 41.078125 -7.140625 C 41.585938 -7.222656 41.910156 -7.492188 42.046875 -7.953125 C 42.191406 -8.441406 42.332031 -8.945312 42.46875 -9.46875 C 44.882812 -18.34375 47.460938 -27.171875 50.203125 -35.953125 C 52.941406 -44.734375 55.742188 -53.492188 58.609375 -62.234375 C 58.648438 -62.347656 58.691406 -62.460938 58.734375 -62.578125 C 58.816406 -62.972656 58.984375 -63.328125 59.234375 -63.640625 C 59.453125 -63.804688 59.710938 -63.914062 60.015625 -63.96875 C 60.328125 -64.019531 60.597656 -63.988281 60.828125 -63.875 C 61.066406 -63.769531 61.15625 -63.53125 61.09375 -63.15625 C 61.082031 -63.070312 61.0625 -62.976562 61.03125 -62.875 C 60.820312 -61.945312 60.585938 -61.03125 60.328125 -60.125 C 58.941406 -55.65625 57.535156 -51.179688 56.109375 -46.703125 C 55.617188 -45.117188 55.125 -43.523438 54.625 -41.921875 C 51.34375 -31.429688 48.164062 -20.914062 45.09375 -10.375 C 45.050781 -10.175781 45 -9.984375 44.9375 -9.796875 C 44.851562 -9.554688 44.789062 -9.332031 44.75 -9.125 C 44.582031 -8.476562 44.628906 -8.082031 44.890625 -7.9375 C 45.160156 -7.800781 45.554688 -7.804688 46.078125 -7.953125 C 51.609375 -9.160156 57.28125 -10.148438 63.09375 -10.921875 C 68.914062 -11.691406 74.703125 -12.390625 80.453125 -13.015625 C 82.203125 -13.210938 83.953125 -13.40625 85.703125 -13.59375 C 85.785156 -13.613281 85.851562 -13.625 85.90625 -13.625 C 86.132812 -13.664062 86.363281 -13.679688 86.59375 -13.671875 C 86.820312 -13.671875 87.046875 -13.613281 87.265625 -13.5 Z M 87.265625 -13.5 "/></g></g><g transform="translate(215.6228, 209.997806)"><g><path d="M 11.15625 -10.875 C 11.457031 -10.769531 11.535156 -10.398438 11.390625 -9.765625 C 11.140625 -9.265625 10.851562 -8.789062 10.53125 -8.34375 C 10.207031 -7.90625 9.835938 -7.492188 9.421875 -7.109375 C 9.390625 -7.109375 9.378906 -7.097656 9.390625 -7.078125 C 9.128906 -6.828125 8.835938 -6.597656 8.515625 -6.390625 C 5.921875 -4.941406 4.421875 -5.296875 4.015625 -7.453125 C 3.046875 -6.296875 2.390625 -5.578125 2.046875 -5.296875 C 1.222656 -4.609375 0.269531 -4.210938 -0.8125 -4.109375 C -1.601562 -4.003906 -2.175781 -4.144531 -2.53125 -4.53125 C -2.882812 -4.925781 -2.957031 -5.523438 -2.75 -6.328125 C -2.425781 -7.578125 -1.863281 -8.734375 -1.0625 -9.796875 C -0.132812 -10.992188 0.953125 -12.007812 2.203125 -12.84375 C 2.859375 -13.320312 3.582031 -13.582031 4.375 -13.625 C 5.175781 -13.707031 5.722656 -13.34375 6.015625 -12.53125 C 6.117188 -12.28125 6.09375 -12.039062 5.9375 -11.8125 C 5.71875 -11.539062 5.429688 -11.4375 5.078125 -11.5 C 5.054688 -11.5 5.019531 -11.5 4.96875 -11.5 C 4.925781 -11.507812 4.890625 -11.523438 4.859375 -11.546875 C 4.460938 -11.960938 4.097656 -12.101562 3.765625 -11.96875 C 3.429688 -11.832031 3.09375 -11.613281 2.75 -11.3125 C 1.132812 -9.988281 0.0507812 -8.328125 -0.5 -6.328125 C -0.539062 -6.234375 -0.554688 -6.132812 -0.546875 -6.03125 C -0.546875 -5.9375 -0.503906 -5.863281 -0.421875 -5.8125 C -0.210938 -5.78125 0.0078125 -5.832031 0.25 -5.96875 C 0.488281 -6.113281 0.71875 -6.300781 0.9375 -6.53125 C 1.164062 -6.769531 1.359375 -6.960938 1.515625 -7.109375 C 1.535156 -7.148438 1.546875 -7.171875 1.546875 -7.171875 C 2.273438 -8.015625 2.984375 -8.875 3.671875 -9.75 C 3.960938 -10.1875 4.378906 -10.472656 4.921875 -10.609375 C 5.679688 -10.734375 6.046875 -10.445312 6.015625 -9.75 C 5.992188 -9.476562 5.960938 -9.207031 5.921875 -8.9375 C 5.796875 -7.789062 5.890625 -7.144531 6.203125 -7 C 6.515625 -6.851562 6.9375 -6.921875 7.46875 -7.203125 C 8.007812 -7.492188 8.523438 -7.953125 9.015625 -8.578125 C 9.503906 -9.210938 9.910156 -9.78125 10.234375 -10.28125 C 10.554688 -10.789062 10.863281 -10.988281 11.15625 -10.875 Z M 11.15625 -10.875 "/></g></g><g transform="translate(227.126344, 208.129357)"><g><path d="M 12.328125 -10.890625 C 12.554688 -10.691406 12.394531 -10.234375 11.84375 -9.515625 C 11.300781 -8.804688 10.695312 -8.179688 10.03125 -7.640625 C 9.375 -7.109375 8.597656 -6.550781 7.703125 -5.96875 C 7.117188 -5.582031 6.460938 -5.378906 5.734375 -5.359375 C 5.003906 -5.335938 4.570312 -5.710938 4.4375 -6.484375 C 4.3125 -7.265625 4.363281 -8.0625 4.59375 -8.875 C 4.820312 -9.726562 4.832031 -10.144531 4.625 -10.125 C 4.425781 -10.113281 4.039062 -9.859375 3.46875 -9.359375 C 1.988281 -8.003906 0.65625 -6.515625 -0.53125 -4.890625 C -0.84375 -4.367188 -1.289062 -4.03125 -1.875 -3.875 C -2.175781 -3.832031 -2.425781 -3.890625 -2.625 -4.046875 C -2.820312 -4.210938 -2.875 -4.414062 -2.78125 -4.65625 C -2.070312 -6.695312 -1.347656 -8.726562 -0.609375 -10.75 C -0.429688 -11.164062 -0.117188 -11.457031 0.328125 -11.625 C 0.515625 -11.6875 0.703125 -11.65625 0.890625 -11.53125 C 1.085938 -11.40625 1.203125 -11.242188 1.234375 -11.046875 C 1.242188 -10.847656 1.207031 -10.613281 1.125 -10.34375 C 1.082031 -10.1875 1.046875 -10.035156 1.015625 -9.890625 C 0.992188 -9.742188 1 -9.625 1.03125 -9.53125 C 1.0625 -9.4375 1.140625 -9.414062 1.265625 -9.46875 C 1.421875 -9.59375 1.570312 -9.722656 1.71875 -9.859375 C 2.125 -10.191406 2.507812 -10.507812 2.875 -10.8125 C 3.195312 -11.0625 3.539062 -11.300781 3.90625 -11.53125 C 4.28125 -11.757812 4.675781 -11.9375 5.09375 -12.0625 C 5.78125 -12.21875 6.296875 -12.140625 6.640625 -11.828125 C 6.992188 -11.523438 7.113281 -11.035156 7 -10.359375 C 6.851562 -9.742188 6.703125 -9.128906 6.546875 -8.515625 C 6.316406 -7.941406 6.328125 -7.53125 6.578125 -7.28125 C 6.828125 -7.039062 7.738281 -7.519531 9.3125 -8.71875 L 10.5 -9.671875 C 11.601562 -10.660156 12.210938 -11.066406 12.328125 -10.890625 Z M 12.328125 -10.890625 "/></g></g><g transform="translate(239.84444, 206.063637)"><g><path d="M 12.015625 -11.046875 C 12.128906 -10.921875 12.171875 -10.789062 12.140625 -10.65625 C 12.117188 -10.53125 12.054688 -10.40625 11.953125 -10.28125 C 11.265625 -9.425781 10.457031 -8.707031 9.53125 -8.125 C 7.976562 -7.070312 6.296875 -6.300781 4.484375 -5.8125 C 3.035156 -5.414062 1.609375 -5.40625 0.203125 -5.78125 C -0.316406 -5.925781 -0.660156 -5.753906 -0.828125 -5.265625 C -1.046875 -4.566406 -1.28125 -3.875 -1.53125 -3.1875 C -1.644531 -2.800781 -1.773438 -2.398438 -1.921875 -1.984375 C -1.953125 -1.929688 -1.972656 -1.875 -1.984375 -1.8125 C -2.046875 -1.675781 -2.097656 -1.539062 -2.140625 -1.40625 C -2.191406 -1.28125 -2.304688 -1.1875 -2.484375 -1.125 C -2.578125 -1.070312 -2.675781 -1.035156 -2.78125 -1.015625 C -2.894531 -1.003906 -2.992188 -1.019531 -3.078125 -1.0625 C -3.160156 -1.113281 -3.234375 -1.179688 -3.296875 -1.265625 C -3.359375 -1.347656 -3.394531 -1.441406 -3.40625 -1.546875 C -3.382812 -1.890625 -3.332031 -2.234375 -3.25 -2.578125 C -3.03125 -3.390625 -2.820312 -4.175781 -2.625 -4.9375 C -2.132812 -6.882812 -1.609375 -8.820312 -1.046875 -10.75 C 0.554688 -16.0625 2.035156 -21.394531 3.390625 -26.75 C 3.472656 -27.257812 3.632812 -27.726562 3.875 -28.15625 C 4.070312 -28.46875 4.378906 -28.597656 4.796875 -28.546875 C 5.253906 -28.441406 5.429688 -28.171875 5.328125 -27.734375 C 5.179688 -26.816406 5.023438 -25.898438 4.859375 -24.984375 C 3.890625 -20.753906 2.757812 -16.578125 1.46875 -12.453125 C 1.195312 -11.566406 1.132812 -11.023438 1.28125 -10.828125 C 1.4375 -10.640625 1.710938 -10.664062 2.109375 -10.90625 C 2.503906 -11.15625 2.96875 -11.476562 3.5 -11.875 C 3.851562 -12.164062 4.222656 -12.429688 4.609375 -12.671875 C 4.671875 -12.742188 4.734375 -12.800781 4.796875 -12.84375 C 5.253906 -13.195312 5.757812 -13.429688 6.3125 -13.546875 C 6.53125 -13.585938 6.707031 -13.515625 6.84375 -13.328125 C 6.925781 -13.203125 6.945312 -13.085938 6.90625 -12.984375 C 6.875 -12.890625 6.820312 -12.8125 6.75 -12.75 C 5.96875 -12.101562 5.164062 -11.476562 4.34375 -10.875 C 3.945312 -10.601562 3.535156 -10.316406 3.109375 -10.015625 C 2.691406 -9.734375 2.285156 -9.441406 1.890625 -9.140625 C 1.609375 -8.910156 1.363281 -8.660156 1.15625 -8.390625 C 0.65625 -7.679688 0.800781 -7.1875 1.59375 -6.90625 C 2.21875 -6.75 2.828125 -6.710938 3.421875 -6.796875 C 4.023438 -6.878906 4.613281 -7.039062 5.1875 -7.28125 C 6.9375 -7.988281 8.539062 -8.9375 10 -10.125 C 10.113281 -10.207031 10.234375 -10.289062 10.359375 -10.375 C 10.628906 -10.625 10.914062 -10.847656 11.21875 -11.046875 C 11.34375 -11.117188 11.476562 -11.160156 11.625 -11.171875 C 11.78125 -11.191406 11.910156 -11.148438 12.015625 -11.046875 Z M 12.015625 -11.046875 "/></g></g></g><g clip-path="url(#460681c184)"><g clip-path="url(#4ad5bf3b8b)"><path fill="#000000" d="M 287.066406 188.25 L 291.136719 188.25 L 291.136719 192.320312 L 287.066406 192.320312 Z M 287.066406 188.25 " fill-opacity="1" fill-rule="nonzero"/></g></g></svg>